<?xml version="1.0" encoding="UTF-8" standalone="no"?>
<!-- Created with Inkscape (http://www.inkscape.org/) -->

<svg
   version="1.1"
   id="svg2"
   xml:space="preserve"
   width="300.66666"
   height="480.66"
   viewBox="0 0 300.66666 480.66"
   sodipodi:docname="Marca_Vertical_4 Tintas.ai"
   xmlns:inkscape="http://www.inkscape.org/namespaces/inkscape"
   xmlns:sodipodi="http://sodipodi.sourceforge.net/DTD/sodipodi-0.dtd"
   xmlns="http://www.w3.org/2000/svg"
   xmlns:svg="http://www.w3.org/2000/svg"><defs
     id="defs6"><clipPath
       clipPathUnits="userSpaceOnUse"
       id="clipPath34"><path
         d="M 0,360.495 H 225.5 V 0 H 0 Z"
         id="path32" /></clipPath></defs><sodipodi:namedview
     id="namedview4"
     pagecolor="#ffffff"
     bordercolor="#666666"
     borderopacity="1.0"
     inkscape:pageshadow="2"
     inkscape:pageopacity="0.0"
     inkscape:pagecheckerboard="0" /><g
     id="g8"
     inkscape:groupmode="layer"
     inkscape:label="Marca_Vertical_4 Tintas"
     transform="matrix(1.3333333,0,0,-1.3333333,0,480.66)"><g
       id="g10"
       transform="translate(108.2504,288.2449)"><path
         d="m 0,0 h -54 l 27,27 z"
         style="fill:#ffcb04;fill-opacity:1;fill-rule:nonzero;stroke:none"
         id="path12" /></g><g
       id="g14"
       transform="translate(108.2504,288.2449)"><path
         d="m 0,0 v -54 l -54,-10e-4 27,-27 h 54 v 54 z"
         style="fill:#f04e2c;fill-opacity:1;fill-rule:nonzero;stroke:none"
         id="path16" /></g><g
       id="g18"
       transform="translate(108.2504,234.2445)"><path
         d="M 0,0 -54,-0.001 V 54 H 0 Z"
         style="fill:#140b19;fill-opacity:1;fill-rule:nonzero;stroke:none"
         id="path20" /></g><g
       id="g22"
       transform="translate(112.7496,130.7431)"><path
         d="M 0,0 -40.5,-40.5 V 40.501 Z"
         style="fill:#140b19;fill-opacity:1;fill-rule:nonzero;stroke:none"
         id="path24" /></g><path
       d="m 72.25,90.243 h -27 v 81.001 h 27 z"
       style="fill:#ffcb04;fill-opacity:1;fill-rule:nonzero;stroke:none"
       id="path26" /><g
       id="g28"><g
         id="g30"
         clip-path="url(#clipPath34)"><g
           id="g36"
           transform="translate(135.2507,261.2441)"><path
             d="m 0,0 38.409,-38.145 c -0.22,0.22 -0.446,0.43 -0.672,0.639 4.464,-4.11 7.262,-10.002 7.262,-16.549 V 10e-4 Z"
             style="fill:#009cd7;fill-opacity:1;fill-rule:nonzero;stroke:none"
             id="path38" /></g><g
           id="g40"
           transform="translate(141.8396,223.0988)"><path
             d="M 0,0 C 8.787,8.787 23.033,8.787 31.82,0 L -6.589,38.145 v -54 C -6.584,-10.103 -4.388,-4.388 0,0"
             style="fill:#ffcb04;fill-opacity:1;fill-rule:nonzero;stroke:none"
             id="path42" /></g><g
           id="g44"
           transform="translate(141.8396,191.2787)"><path
             d="m 0,0 c -4.393,4.393 -6.59,10.152 -6.59,15.91 0,0.007 0,0.014 0,0.056 H -60.589 L -96.59,-20.035 h 27 L -29.09,-60.536 31.82,0 C 23.033,-8.787 8.787,-8.787 0,0"
             style="fill:#009cd7;fill-opacity:1;fill-rule:nonzero;stroke:none"
             id="path46" /></g><g
           id="g48"
           transform="translate(157.7496,229.6889)"><path
             d="M 0,0 C 12.427,0 22.5,-10.074 22.5,-22.5 22.5,-34.927 12.427,-45 0,-45 -12.427,-45 -22.5,-34.927 -22.5,-22.5 -22.5,-10.074 -12.427,0 0,0"
             style="fill:#140b19;fill-opacity:1;fill-rule:nonzero;stroke:none"
             id="path50" /></g><g
           id="g52"
           transform="translate(120.6289,45.25)"><path
             d="M 0,0 -12.842,15.989 V 0 h -5.875 v 24.997 h 6.298 L 0.425,9.059 V 24.997 H 6.3 L 6.3,0 Z"
             style="fill:#140b19;fill-opacity:1;fill-rule:nonzero;stroke:none"
             id="path54" /></g><g
           id="g56"
           transform="translate(85.0279,51.0354)"><path
             d="m 0,0 c 3.704,0 6.718,3.012 6.718,6.713 0,3.702 -3.014,6.713 -6.718,6.713 H -5.509 V 0 Z m -11.388,-5.785 v 24.997 h 11.341 c 6.897,0 12.508,-5.607 12.508,-12.499 0,-6.892 -5.611,-12.498 -12.508,-12.498 z"
             style="fill:#140b19;fill-opacity:1;fill-rule:nonzero;stroke:none"
             id="path58" /></g><g
           id="g60"
           transform="translate(57.5813,44.9782)"><path
             d="m 0,0 c -7.036,0 -12.759,5.72 -12.759,12.75 0,7.03 5.723,12.75 12.759,12.75 4.028,0 7.866,-1.941 10.268,-5.193 l 0.215,-0.29 -4.63,-3.333 -0.197,0.266 c -1.336,1.808 -3.47,2.887 -5.707,2.887 -3.911,0 -7.092,-3.179 -7.092,-7.087 0,-3.907 3.181,-7.087 7.092,-7.087 2.242,0 4.379,1.083 5.714,2.896 L 5.859,8.826 10.495,5.5 10.281,5.21 C 7.878,1.948 4.035,0 0,0"
             style="fill:#140b19;fill-opacity:1;fill-rule:nonzero;stroke:none"
             id="path62" /></g><g
           id="g64"
           transform="translate(152.0381,65.0454)"><path
             d="M 0,0 V 5.202 H -19.212 V -19.795 H 0 v 5.201 h -13.332 v 4.359 h 11.857 v 5.876 H -13.332 V 0 Z"
             style="fill:#140b19;fill-opacity:1;fill-rule:nonzero;stroke:none"
             id="path66" /></g><g
           id="g68"
           transform="translate(169.1465,44.7471)"><path
             d="M 0,0 C -6.123,0 -11.104,5.199 -11.104,11.588 V 25.5 h 5.84 V 11.897 c 0,-3.15 2.362,-5.714 5.264,-5.714 2.902,0 5.264,2.564 5.264,5.714 V 25.5 h 5.839 V 11.588 C 11.103,5.199 6.123,0 0,0"
             style="fill:#140b19;fill-opacity:1;fill-rule:nonzero;stroke:none"
             id="path70" /></g></g></g></g></svg>
