<?xml version="1.0" encoding="UTF-8" standalone="no"?>
<!-- Created with Inkscape (http://www.inkscape.org/) -->

<svg
   version="1.1"
   id="svg2"
   xml:space="preserve"
   width="666.66669"
   height="420"
   viewBox="0 0 666.66669 420"
   sodipodi:docname="Marca_Horizontal_1 Tinta Positivo.ai"
   xmlns:inkscape="http://www.inkscape.org/namespaces/inkscape"
   xmlns:sodipodi="http://sodipodi.sourceforge.net/DTD/sodipodi-0.dtd"
   xmlns="http://www.w3.org/2000/svg"
   xmlns:svg="http://www.w3.org/2000/svg"><defs
     id="defs6"><clipPath
       clipPathUnits="userSpaceOnUse"
       id="clipPath20"><path
         d="M 0,315 H 500 V 0 H 0 Z"
         id="path18" /></clipPath></defs><sodipodi:namedview
     id="namedview4"
     pagecolor="#ffffff"
     bordercolor="#666666"
     borderopacity="1.0"
     inkscape:pageshadow="2"
     inkscape:pageopacity="0.0"
     inkscape:pagecheckerboard="0" /><g
     id="g8"
     inkscape:groupmode="layer"
     inkscape:label="Marca_Horizontal_1 Tinta Positivo"
     transform="matrix(1.3333333,0,0,-1.3333333,0,420)"><g
       id="g10"
       transform="translate(345.1617,89.9974)"><path
         d="M 0,0 -23.121,28.786 V 0 h -10.576 v 45.003 h 11.338 L 0.766,16.31 V 45.003 H 11.342 L 11.342,0 Z"
         style="fill:#140b19;fill-opacity:1;fill-rule:nonzero;stroke:none"
         id="path12" /></g><g
       id="g14"><g
         id="g16"
         clip-path="url(#clipPath20)"><g
           id="g22"
           transform="translate(281.0677,100.4131)"><path
             d="M 0,0 C 6.669,0 12.095,5.422 12.095,12.085 12.095,18.75 6.669,24.172 0,24.172 H -9.918 V 0 Z m -20.503,-10.416 v 45.004 h 20.419 c 12.416,0 22.517,-10.095 22.517,-22.503 0,-12.406 -10.101,-22.501 -22.517,-22.501 z"
             style="fill:#140b19;fill-opacity:1;fill-rule:nonzero;stroke:none"
             id="path24" /></g><g
           id="g26"
           transform="translate(231.6544,89.5082)"><path
             d="m 0,0 c -12.666,0 -22.971,10.297 -22.971,22.955 0,12.656 10.305,22.954 22.971,22.954 7.251,0 14.162,-3.495 18.486,-9.349 l 0.386,-0.522 -8.334,-6.001 -0.355,0.479 c -2.405,3.255 -6.247,5.198 -10.275,5.198 -7.041,0 -12.769,-5.724 -12.769,-12.759 0,-7.035 5.728,-12.759 12.769,-12.759 4.037,0 7.883,1.949 10.287,5.214 l 0.353,0.479 8.346,-5.987 -0.385,-0.521 C 14.183,3.506 7.264,0 0,0"
             style="fill:#140b19;fill-opacity:1;fill-rule:nonzero;stroke:none"
             id="path28" /></g><g
           id="g30"
           transform="translate(401.709,125.636)"><path
             d="M 0,0 V 9.365 H -34.588 V -35.639 H 0 v 9.365 h -24.002 v 7.847 h 21.346 v 10.58 H -24.002 V 0 Z"
             style="fill:#140b19;fill-opacity:1;fill-rule:nonzero;stroke:none"
             id="path32" /></g><g
           id="g34"
           transform="translate(432.51,89.092)"><path
             d="M 0,0 C -11.023,0 -19.991,9.359 -19.991,20.863 V 45.909 H -9.478 V 21.418 c 0,-5.671 4.253,-10.286 9.478,-10.286 5.225,0 9.476,4.615 9.476,10.286 V 45.909 H 19.99 V 20.863 C 19.99,9.359 11.023,0 0,0"
             style="fill:#140b19;fill-opacity:1;fill-rule:nonzero;stroke:none"
             id="path36" /></g><g
           id="g38"
           transform="translate(59.7831,247.8737)"><path
             d="M 0,0 H 42.995 L 21.497,21.497 Z"
             style="fill:#140b19;fill-opacity:1;fill-rule:nonzero;stroke:none"
             id="path40" /></g><g
           id="g42"
           transform="translate(56.1203,242.6936)"><path
             d="m 0,0 v -50.321 l 50.321,10e-4 V 0 Z"
             style="fill:#140b19;fill-opacity:1;fill-rule:nonzero;stroke:none"
             id="path44" /></g><g
           id="g46"
           transform="translate(74.6205,118.7798)"><path
             d="m 0,0 v -70.746 l 35.372,35.373 z"
             style="fill:#140b19;fill-opacity:1;fill-rule:nonzero;stroke:none"
             id="path48" /></g><path
           d="m 46.87,44.371 h 22.57 v 78.072 H 46.87 Z"
           style="fill:#140b19;fill-opacity:1;fill-rule:nonzero;stroke:none"
           id="path50" /><g
           id="g52"
           transform="translate(178.0856,180.1559)"><path
             d="M 0,0 C 0.851,-0.851 1.637,-1.758 2.355,-2.712 V 34.787 H -35.021 L -0.073,0.079 c 0.025,-0.025 0.051,-0.05 0.076,-0.076 z"
             style="fill:#140b19;fill-opacity:1;fill-rule:nonzero;stroke:none"
             id="path54" /></g><g
           id="g56"
           transform="translate(50.533,127.6227)"><path
             d="m 0,0 h 22.57 l 40.558,-40.558 49.736,49.429 c -1.148,-0.155 -2.314,-0.233 -3.492,-0.233 -6.869,0 -13.326,2.675 -18.183,7.532 -3.965,3.965 -6.568,9.222 -7.311,14.782 -1.054,7.887 1.69,15.964 7.311,21.585 5.913,5.912 14.013,8.337 21.719,7.277 l -51.82,51.612 V 59.571 L 9.25,59.57 34.411,34.41 Z"
             style="fill:#140b19;fill-opacity:1;fill-rule:nonzero;stroke:none"
             id="path58" /></g><g
           id="g60"
           transform="translate(159.9052,182.5111)"><path
             d="m 0,0 c -11.323,0 -20.535,-9.212 -20.535,-20.535 0,-11.323 9.212,-20.535 20.535,-20.535 11.323,0 20.535,9.212 20.535,20.535 C 20.535,-9.212 11.323,0 0,0"
             style="fill:#140b19;fill-opacity:1;fill-rule:nonzero;stroke:none"
             id="path62" /></g></g></g></g></svg>
